<?xml version="1.0" encoding="iso-8859-1"?>
<!-- Generator: Adobe Illustrator 18.0.0, SVG Export Plug-In . SVG Version: 6.00 Build 0)  -->
<!DOCTYPE svg PUBLIC "-//W3C//DTD SVG 1.1//EN" "http://www.w3.org/Graphics/SVG/1.1/DTD/svg11.dtd">
<svg version="1.1" id="Capa_1" xmlns="http://www.w3.org/2000/svg" xmlns:xlink="http://www.w3.org/1999/xlink" x="0px" y="0px"
	 viewBox="0 0 303.926 303.926" style="enable-background:new 0 0 303.926 303.926;" xml:space="preserve">
<g>
	<path d="M124.232,27.731C55.621,27.731,0,83.352,0,151.963c0,68.611,55.621,124.232,124.232,124.232
		c68.612,0,124.232-55.621,124.232-124.232C248.464,83.352,192.844,27.731,124.232,27.731z M174.928,92.771
		c12.395-7.156,28.243-2.909,35.399,9.485c7.156,12.395,2.909,28.243-9.485,35.399c-12.395,7.156-28.243,2.91-35.399-9.485
		C158.287,115.775,162.533,99.927,174.928,92.771z M73.536,211.155c-12.395,7.156-28.243,2.91-35.399-9.485
		c-7.156-12.395-2.909-28.243,9.485-35.4c12.395-7.156,28.243-2.909,35.399,9.485C90.178,188.15,85.931,203.999,73.536,211.155z
		 M83.022,128.17c-7.156,12.395-23.005,16.641-35.399,9.485c-12.395-7.156-16.641-23.005-9.485-35.399
		c7.156-12.395,23.005-16.641,35.399-9.485C85.931,99.927,90.178,115.775,83.022,128.17z M124.232,251.377
		c-14.312,0-25.914-11.602-25.914-25.914s11.602-25.914,25.914-25.914s25.914,11.602,25.914,25.914S138.544,251.377,124.232,251.377
		z M104.232,151.963c0-11.046,8.954-20,20-20c11.046,0,20,8.954,20,20c0,11.046-8.954,20-20,20
		C113.187,171.963,104.232,163.009,104.232,151.963z M124.232,104.377c-14.312,0-25.914-11.602-25.914-25.914
		s11.602-25.914,25.914-25.914s25.914,11.602,25.914,25.914S138.544,104.377,124.232,104.377z M210.327,201.67
		c-7.156,12.395-23.005,16.641-35.399,9.485c-12.395-7.156-16.641-23.005-9.485-35.399c7.156-12.395,23.005-16.641,35.399-9.485
		C213.237,173.427,217.483,189.275,210.327,201.67z"/>
	<path d="M265.991,234.929c-7.057,12.054-15.626,23.161-25.63,33.164c-2.362,2.362-4.792,4.635-7.274,6.836h50.838
		c11.046,0,20-8.954,20-20v0c0-11.046-8.954-20-20-20H265.991z"/>
</g>
<g>
</g>
<g>
</g>
<g>
</g>
<g>
</g>
<g>
</g>
<g>
</g>
<g>
</g>
<g>
</g>
<g>
</g>
<g>
</g>
<g>
</g>
<g>
</g>
<g>
</g>
<g>
</g>
<g>
</g>
</svg>
