<?xml version="1.0" encoding="iso-8859-1"?>
<!-- Generator: Adobe Illustrator 18.0.0, SVG Export Plug-In . SVG Version: 6.00 Build 0)  -->
<!DOCTYPE svg PUBLIC "-//W3C//DTD SVG 1.1//EN" "http://www.w3.org/Graphics/SVG/1.1/DTD/svg11.dtd">
<svg version="1.1" id="Capa_1" xmlns="http://www.w3.org/2000/svg" xmlns:xlink="http://www.w3.org/1999/xlink" x="0px" y="0px"
	 viewBox="0 0 296.307 296.307" style="enable-background:new 0 0 296.307 296.307;" xml:space="preserve">
<g>
	<path d="M282.294,205.077H263.3v0c0-2.993-0.964-5.761-2.597-8.01c-12.445-17.135-22.883-36.204-30.529-55.954l-0.001-0.003
		c-2.324-7.475-9.937-12.184-17.814-10.694c-8.477,1.603-14.048,9.775-12.445,18.252l6.982,36.911
		c0.273,1.444-0.111,2.934-1.049,4.066s-2.331,1.786-3.8,1.786h-96.494c-7.536,0-13.646,6.109-13.646,13.646
		c0,4.662,2.342,8.774,5.91,11.235H90c-7.536,0-13.646,6.109-13.646,13.646S82.464,243.603,90,243.603h3.15
		c-3.567,2.461-5.908,6.573-5.908,11.234c0,7.536,6.109,13.646,13.646,13.646h16.823c-2.49,2.472-4.033,5.896-4.033,9.682
		c0,7.536,6.109,13.646,13.646,13.646h122.332c7.536,0,13.646-6.109,13.646-13.646v0h18.994c7.739,0,14.013-6.274,14.013-14.013
		V219.09C296.307,211.351,290.033,205.077,282.294,205.077z"/>
	<path d="M83.948,165.89c8.477-1.603,14.048-9.775,12.445-18.252l-6.982-36.911c-0.273-1.444,0.111-2.934,1.049-4.066
		s2.331-1.786,3.8-1.786h96.494c7.536,0,13.646-6.109,13.646-13.646c0-4.662-2.342-8.774-5.91-11.235h7.817
		c7.536,0,13.646-6.109,13.646-13.646s-6.109-13.646-13.646-13.646h-3.15c3.567-2.461,5.908-6.573,5.908-11.234
		c0-7.536-6.109-13.646-13.646-13.646h-16.823c2.49-2.472,4.033-5.896,4.033-9.682c0-7.536-6.109-13.646-13.646-13.646H46.652
		c-7.536,0-13.646,6.109-13.646,13.646v0H14.013C6.274,18.142,0,24.416,0,32.155v45.061c0,7.739,6.274,14.013,14.013,14.013h18.994
		v0c0,2.993,0.964,5.761,2.597,8.01c12.445,17.134,22.882,36.202,30.528,55.95l0.002,0.006
		C68.458,162.671,76.071,167.38,83.948,165.89z"/>
</g>
<g>
</g>
<g>
</g>
<g>
</g>
<g>
</g>
<g>
</g>
<g>
</g>
<g>
</g>
<g>
</g>
<g>
</g>
<g>
</g>
<g>
</g>
<g>
</g>
<g>
</g>
<g>
</g>
<g>
</g>
</svg>
