<?xml version="1.0" encoding="iso-8859-1"?>
<!-- Generator: Adobe Illustrator 17.1.0, SVG Export Plug-In . SVG Version: 6.00 Build 0)  -->
<!DOCTYPE svg PUBLIC "-//W3C//DTD SVG 1.0//EN" "http://www.w3.org/TR/2001/REC-SVG-20010904/DTD/svg10.dtd">
<svg version="1.0" xmlns="http://www.w3.org/2000/svg" xmlns:xlink="http://www.w3.org/1999/xlink" x="0px" y="0px" width="110px"
	 height="110px" viewBox="0 0 110 110" style="enable-background:new 0 0 110 110;" xml:space="preserve">
<g id="Artboard" style="display:none;">
	<rect x="-305.5" y="-37.5" style="display:inline;fill:#808080;stroke:#000000;stroke-miterlimit:10;" width="1351" height="321"/>
</g>
<g id="R-Multicolor" style="display:none;">
	<circle style="display:inline;fill:#FABC3D;" cx="55" cy="55" r="55"/>
	<g style="display:inline;">
		<polygon style="fill:#F0F1F1;" points="87,43 83,43 75,47 75,63 83,67 87,67 		"/>
		<path style="fill:#3E3E3F;" d="M79,31c0,2.209-1.791,4-4,4H63v-8h12C77.209,27,79,28.791,79,31z"/>
		<rect x="36" y="71" style="fill:#F0F1F1;" width="22" height="4"/>
		<polygon style="fill:#3E3E3F;" points="61,87 55,75 39,75 33,87 39,87 44,77 44,87 50,87 50,77 55,87 		"/>
		<path style="fill:#3E3E3F;" d="M31.422,35.211C31.145,35.072,30.838,35,30.528,35H25c-1.104,0-2,0.896-2,2v32c0,1.104,0.896,2,2,2
			h40c1.104,0,2-0.896,2-2v-6h8V47h-8v-6c0-1.104-0.896-2-2-2H42.07l4-6H63v-4H43.93l-6.232,9.349"/>
		<circle style="fill:#F79392;" cx="59" cy="46" r="2"/>
		<path style="fill:#5B5C5F;" d="M75,27H63v4h16C79,28.791,77.209,27,75,27z"/>
		<polygon style="fill:#FFFFFF;" points="75,47 75,55 87,55 87,43 83,43 		"/>
		<rect x="43" y="62" style="fill:#818284;" width="18" height="3"/>
	</g>
</g>
<g id="Multicolor_1_" style="display:none;">
	<g style="display:inline;">
		<polygon style="fill:#F0F1F1;" points="87,43 83,43 75,47 75,63 83,67 87,67 		"/>
		<path style="fill:#3E3E3F;" d="M79,31c0,2.209-1.791,4-4,4H63v-8h12C77.209,27,79,28.791,79,31z"/>
		<rect x="36" y="71" style="fill:#F0F1F1;" width="22" height="4"/>
		<polygon style="fill:#3E3E3F;" points="61,87 55,75 39,75 33,87 39,87 44,77 44,87 50,87 50,77 55,87 		"/>
		<path style="fill:#3E3E3F;" d="M31.422,35.211C31.145,35.072,30.838,35,30.528,35H25c-1.104,0-2,0.896-2,2v32c0,1.104,0.896,2,2,2
			h40c1.104,0,2-0.896,2-2v-6h8V47h-8v-6c0-1.104-0.896-2-2-2H42.07l4-6H63v-4H43.93l-6.232,9.349"/>
		<circle style="fill:#F79392;" cx="59" cy="46" r="2"/>
		<path style="fill:#5B5C5F;" d="M75,27H63v4h16C79,28.791,77.209,27,75,27z"/>
		<polygon style="fill:#FFFFFF;" points="75,47 75,55 87,55 87,43 83,43 		"/>
		<rect x="43" y="62" style="fill:#818284;" width="18" height="3"/>
	</g>
</g>
<g id="Blue">
	<g>
		<g>
			<polygon style="fill:#E1F5FA;" points="87,43 83,43 75,47 75,63 83,67 87,67 			"/>
		</g>
		<g>
			<path style="fill:#0081A1;" d="M79,31c0,2.209-1.791,4-4,4H63v-8h12C77.209,27,79,28.791,79,31z"/>
		</g>
		<g>
			<rect x="36" y="71" style="fill:#E1F5FA;" width="22" height="4"/>
		</g>
		<g>
			<polygon style="fill:#0C333D;" points="61,87 55,75 39,75 33,87 39,87 44,77 44,87 50,87 50,77 55,87 			"/>
		</g>
		<g>
			<path style="fill:#0C333D;" d="M31.422,35.211C31.145,35.073,30.838,35,30.528,35H25c-1.104,0-2,0.896-2,2v32
				c0,1.104,0.896,2,2,2h40c1.104,0,2-0.896,2-2v-6h8V47h-8v-6c0-1.104-0.896-2-2-2H42.07l4-6H63v-4H43.93l-6.232,9.349"/>
		</g>
		<g>
			<circle style="fill:#00B7E5;" cx="59" cy="46" r="2"/>
		</g>
		<g>
			<path style="fill:#009FC7;" d="M75,27H63v4h16C79,28.791,77.209,27,75,27z"/>
		</g>
		<g>
			<polygon style="fill:#FFFFFF;" points="75,47 75,55 87,55 87,43 83,43 			"/>
		</g>
		<g>
			<rect x="43" y="62" style="fill:#468595;" width="18" height="3"/>
		</g>
	</g>
</g>
<g id="R-Blue" style="display:none;">
	<g style="display:inline;">
		<circle style="fill:#81D2EB;" cx="55" cy="55" r="55"/>
	</g>
	<g style="display:inline;">
		<g>
			<polygon style="fill:#E1F5FA;" points="87,43 83,43 75,47 75,63 83,67 87,67 			"/>
		</g>
		<g>
			<path style="fill:#0081A1;" d="M79,31c0,2.209-1.791,4-4,4H63v-8h12C77.209,27,79,28.791,79,31z"/>
		</g>
		<g>
			<rect x="36" y="71" style="fill:#E1F5FA;" width="22" height="4"/>
		</g>
		<g>
			<polygon style="fill:#0C333D;" points="61,87 55,75 39,75 33,87 39,87 44,77 44,87 50,87 50,77 55,87 			"/>
		</g>
		<g>
			<path style="fill:#0C333D;" d="M31.422,35.211C31.144,35.073,30.838,35,30.528,35H25c-1.104,0-2,0.896-2,2v32
				c0,1.104,0.896,2,2,2h40c1.104,0,2-0.896,2-2v-6h8V47h-8v-6c0-1.104-0.896-2-2-2H42.07l4-6H63v-4H43.93l-6.232,9.349"/>
		</g>
		<g>
			<circle style="fill:#00B7E5;" cx="59" cy="46" r="2"/>
		</g>
		<g>
			<path style="fill:#009FC7;" d="M75,27H63v4h16C79,28.791,77.209,27,75,27z"/>
		</g>
		<g>
			<polygon style="fill:#FFFFFF;" points="75,47 75,55 87,55 87,43 83,43 			"/>
		</g>
		<g>
			<rect x="43" y="62" style="fill:#468595;" width="18" height="3"/>
		</g>
	</g>
</g>
<g id="Green" style="display:none;">
	<g style="display:inline;">
		<g>
			<polygon style="fill:#D7FCF9;" points="87,43 83,43 75,47 75,63 83,67 87,67 			"/>
		</g>
		<g>
			<path style="fill:#009687;" d="M79,31c0,2.209-1.791,4-4,4H63v-8h12C77.209,27,79,28.791,79,31z"/>
		</g>
		<g>
			<rect x="36" y="71" style="fill:#D7FCF9;" width="22" height="4"/>
		</g>
		<g>
			<polygon style="fill:#0A3631;" points="61,87 55,75 39,75 33,87 39,87 44,77 44,87 50,87 50,77 55,87 			"/>
		</g>
		<g>
			<path style="fill:#0A3631;" d="M31.422,35.211C31.145,35.073,30.838,35,30.528,35H25c-1.104,0-2,0.896-2,2v32
				c0,1.104,0.896,2,2,2h40c1.104,0,2-0.896,2-2v-6h8V47h-8v-6c0-1.104-0.896-2-2-2H42.07l4-6H63v-4H43.93l-6.232,9.349"/>
		</g>
		<g>
			<circle style="fill:#00D6C1;" cx="59" cy="46" r="2"/>
		</g>
		<g>
			<path style="fill:#00B8A5;" d="M75,27H63v4h16C79,28.791,77.209,27,75,27z"/>
		</g>
		<g>
			<polygon style="fill:#FFFFFF;" points="75,47 75,55 87,55 87,43 83,43 			"/>
		</g>
		<g>
			<rect x="43" y="62" style="fill:#4A8781;" width="18" height="3"/>
		</g>
	</g>
</g>
<g id="R-Green" style="display:none;">
	<g style="display:inline;">
		<circle style="fill:#87E0C8;" cx="55" cy="55" r="55"/>
	</g>
	<g style="display:inline;">
		<g>
			<polygon style="fill:#D7FCF9;" points="87,43 83,43 75,47 75,63 83,67 87,67 			"/>
		</g>
		<g>
			<path style="fill:#009687;" d="M79,31c0,2.209-1.791,4-4,4H63v-8h12C77.209,27,79,28.791,79,31z"/>
		</g>
		<g>
			<rect x="36" y="71" style="fill:#D7FCF9;" width="22" height="4"/>
		</g>
		<g>
			<polygon style="fill:#0A3631;" points="61,87 55,75 39,75 33,87 39,87 44,77 44,87 50,87 50,77 55,87 			"/>
		</g>
		<g>
			<path style="fill:#0A3631;" d="M31.422,35.211C31.145,35.073,30.838,35,30.528,35H25c-1.104,0-2,0.896-2,2v32
				c0,1.104,0.896,2,2,2h40c1.104,0,2-0.896,2-2v-6h8V47h-8v-6c0-1.104-0.896-2-2-2H42.07l4-6H63v-4H43.93l-6.232,9.349"/>
		</g>
		<g>
			<circle style="fill:#00D6C1;" cx="59" cy="46" r="2"/>
		</g>
		<g>
			<path style="fill:#00B8A5;" d="M75,27H63v4h16C79,28.791,77.209,27,75,27z"/>
		</g>
		<g>
			<polygon style="fill:#FFFFFF;" points="75,47 75,55 87,55 87,43 83,43 			"/>
		</g>
		<g>
			<rect x="43" y="62" style="fill:#4A8781;" width="18" height="3"/>
		</g>
	</g>
</g>
<g id="Red" style="display:none;">
	<g style="display:inline;">
		<g>
			<polygon style="fill:#FFEFED;" points="87,43 83,43 75,47 75,63 83,67 87,67 			"/>
		</g>
		<g>
			<path style="fill:#C23023;" d="M79,31c0,2.209-1.791,4-4,4H63v-8h12C77.209,27,79,28.791,79,31z"/>
		</g>
		<g>
			<rect x="36" y="71" style="fill:#FFEFED;" width="22" height="4"/>
		</g>
		<g>
			<polygon style="fill:#4A1410;" points="61,87 55,75 39,75 33,87 39,87 44,77 44,87 50,87 50,77 55,87 			"/>
		</g>
		<g>
			<path style="fill:#4A1410;" d="M31.422,35.211C31.144,35.073,30.838,35,30.528,35H25c-1.104,0-2,0.896-2,2v32
				c0,1.104,0.896,2,2,2h40c1.104,0,2-0.896,2-2v-6h8V47h-8v-6c0-1.104-0.896-2-2-2H42.07l4-6H63v-4H43.93l-6.232,9.349"/>
		</g>
		<g>
			<circle style="fill:#FF6C5E;" cx="59" cy="46" r="2"/>
		</g>
		<g>
			<path style="fill:#E54B44;" d="M75,27H63v4h16C79,28.791,77.209,27,75,27z"/>
		</g>
		<g>
			<polygon style="fill:#FFFFFF;" points="75,47 75,55 87,55 87,43 83,43 			"/>
		</g>
		<g>
			<rect x="43" y="62" style="fill:#9B5852;" width="18" height="3"/>
		</g>
	</g>
</g>
<g id="R-Red" style="display:none;">
	<g style="display:inline;">
		<circle style="fill:#FABBAF;" cx="55" cy="55" r="55"/>
	</g>
	<g style="display:inline;">
		<g>
			<polygon style="fill:#FFEFED;" points="87,43 83,43 75,47 75,63 83,67 87,67 			"/>
		</g>
		<g>
			<path style="fill:#C23023;" d="M79,31c0,2.209-1.791,4-4,4H63v-8h12C77.209,27,79,28.791,79,31z"/>
		</g>
		<g>
			<rect x="36" y="71" style="fill:#FFEFED;" width="22" height="4"/>
		</g>
		<g>
			<polygon style="fill:#4A1410;" points="61,87 55,75 39,75 33,87 39,87 44,77 44,87 50,87 50,77 55,87 			"/>
		</g>
		<g>
			<path style="fill:#4A1410;" d="M31.422,35.211C31.145,35.073,30.838,35,30.528,35H25c-1.104,0-2,0.896-2,2v32
				c0,1.104,0.896,2,2,2h40c1.104,0,2-0.896,2-2v-6h8V47h-8v-6c0-1.104-0.896-2-2-2H42.07l4-6H63v-4H43.93l-6.232,9.349"/>
		</g>
		<g>
			<circle style="fill:#FF6C5E;" cx="59" cy="46" r="2"/>
		</g>
		<g>
			<path style="fill:#E54B44;" d="M75,27H63v4h16C79,28.791,77.209,27,75,27z"/>
		</g>
		<g>
			<polygon style="fill:#FFFFFF;" points="75,47 75,55 87,55 87,43 83,43 			"/>
		</g>
		<g>
			<rect x="43" y="62" style="fill:#9B5852;" width="18" height="3"/>
		</g>
	</g>
</g>
<g id="Yellow" style="display:none;">
	<g style="display:inline;">
		<g>
			<polygon style="fill:#FFF5D9;" points="87,42.945 83,42.945 75,46.945 75,62.945 83,66.945 87,66.945 			"/>
		</g>
		<g>
			<path style="fill:#E07000;" d="M79,30.945c0,2.209-1.791,4-4,4H63v-8h12C77.209,26.945,79,28.736,79,30.945z"/>
		</g>
		<g>
			<rect x="36" y="70.945" style="fill:#FFF5D9;" width="22" height="4"/>
		</g>
		<g>
			<polygon style="fill:#3D320C;" points="61,86.945 55,74.945 39,74.945 33,86.945 39,86.945 44,76.945 44,86.945 50,86.945 
				50,76.945 55,86.945 			"/>
		</g>
		<g>
			<path style="fill:#3D320C;" d="M31.422,35.157c-0.278-0.139-0.584-0.211-0.895-0.211H25c-1.104,0-2,0.896-2,2v32
				c0,1.105,0.896,2,2,2h40c1.104,0,2-0.895,2-2v-6h8v-16h-8v-6c0-1.104-0.896-2-2-2H42.07l4-6H63v-4H43.93l-6.232,9.349"/>
		</g>
		<g>
			<circle style="fill:#FFAA00;" cx="59" cy="45.945" r="2"/>
		</g>
		<g>
			<path style="fill:#FA9200;" d="M75,26.945H63v4h16C79,28.736,77.209,26.945,75,26.945z"/>
		</g>
		<g>
			<polygon style="fill:#FFFFFF;" points="75,46.945 75,54.945 87,54.945 87,42.945 83,42.945 			"/>
		</g>
		<g>
			<rect x="43" y="61.945" style="fill:#897945;" width="18" height="3"/>
		</g>
	</g>
</g>
<g id="R-Yellow" style="display:none;">
	<g style="display:inline;">
		<circle style="fill:#FFD75E;" cx="55" cy="55" r="55"/>
	</g>
	<g style="display:inline;">
		<g>
			<polygon style="fill:#FFF5D9;" points="87,43 83,43 75,47 75,63 83,67 87,67 			"/>
		</g>
		<g>
			<path style="fill:#E07000;" d="M79,31c0,2.209-1.791,4-4,4H63v-8h12C77.209,27,79,28.791,79,31z"/>
		</g>
		<g>
			<rect x="36" y="71" style="fill:#FFF5D9;" width="22" height="4"/>
		</g>
		<g>
			<polygon style="fill:#3D320C;" points="61,87 55,75 39,75 33,87 39,87 44,77 44,87 50,87 50,77 55,87 			"/>
		</g>
		<g>
			<path style="fill:#3D320C;" d="M31.422,35.211C31.144,35.073,30.838,35,30.528,35H25c-1.104,0-2,0.896-2,2v32
				c0,1.104,0.896,2,2,2h40c1.104,0,2-0.896,2-2v-6h8V47h-8v-6c0-1.104-0.896-2-2-2H42.07l4-6H63v-4H43.93l-6.232,9.349"/>
		</g>
		<g>
			<circle style="fill:#FFAA00;" cx="59" cy="46" r="2"/>
		</g>
		<g>
			<path style="fill:#FA9200;" d="M75,27H63v4h16C79,28.791,77.209,27,75,27z"/>
		</g>
		<g>
			<polygon style="fill:#FFFFFF;" points="75,47 75,55 87,55 87,43 83,43 			"/>
		</g>
		<g>
			<rect x="43" y="62" style="fill:#897945;" width="18" height="3"/>
		</g>
	</g>
</g>
</svg>
