<?xml version="1.0" encoding="iso-8859-1"?>
<!-- Generator: Adobe Illustrator 18.0.0, SVG Export Plug-In . SVG Version: 6.00 Build 0)  -->
<!DOCTYPE svg PUBLIC "-//W3C//DTD SVG 1.1//EN" "http://www.w3.org/Graphics/SVG/1.1/DTD/svg11.dtd">
<svg version="1.1" id="Capa_1" xmlns="http://www.w3.org/2000/svg" xmlns:xlink="http://www.w3.org/1999/xlink" x="0px" y="0px"
	 viewBox="0 0 294.536 294.536" style="enable-background:new 0 0 294.536 294.536;" xml:space="preserve">
<path d="M282.036,104.285c-5.653,0-10.425,3.756-11.97,8.906h-17.039v-6.939c0-7.564-6.132-13.696-13.696-13.696H109.422
	l17.802-30.692c1.949-3.362,5.574-5.45,9.46-5.45h89.727c6.903,0,12.5-5.597,12.5-12.5s-5.597-12.5-12.5-12.5h-89.727
	c-12.769,0-24.681,6.861-31.086,17.907L80.522,92.557H61.338c-7.564,0-13.696,6.132-13.696,13.696v28.454l-39.355-11.54
	c-1.955-0.573-4.066-0.192-5.697,1.029C0.96,125.416,0,127.334,0,129.372v96.935c0,2.037,0.96,3.956,2.591,5.177
	c1.631,1.221,3.742,1.603,5.697,1.029l39.355-11.54v28.454c0,7.564,6.132,13.696,13.696,13.696h177.993
	c7.564,0,13.696-6.132,13.696-13.696v-89.203h17.039c1.545,5.151,6.316,8.906,11.97,8.906c6.903,0,12.5-5.597,12.5-12.5v-39.844
	C294.536,109.882,288.939,104.285,282.036,104.285z M148.126,244.15c-11.044,0-20-8.953-20-20s8.956-20,20-20
	c11.051,0,20,8.953,20,20S159.177,244.15,148.126,244.15z M212.381,244.15c-11.043,0-20-8.954-20-20s8.957-20,20-20
	c11.049,0,20,8.954,20,20S223.429,244.15,212.381,244.15z"/>
<g>
</g>
<g>
</g>
<g>
</g>
<g>
</g>
<g>
</g>
<g>
</g>
<g>
</g>
<g>
</g>
<g>
</g>
<g>
</g>
<g>
</g>
<g>
</g>
<g>
</g>
<g>
</g>
<g>
</g>
</svg>
